<svg width="24" height="24" viewBox="0 0 24 24" fill="none" xmlns="http://www.w3.org/2000/svg">
  <path d="M8 5.3C8 5.3 4 9.34 4 12.26C4 14.92 6.15 17.08 8.81 17.08C11.47 17.08 13.63 14.92 13.63 12.26C13.63 9.34 9.63 5.3 9.63 5.3C9.2 4.86 8.43 4.86 8 5.3Z" stroke="#10B981" stroke-width="1.9"/>
  <path d="M15.4 4.4C15.4 4.4 11.9 7.95 11.9 10.52C11.9 12.86 13.8 14.76 16.14 14.76C18.48 14.76 20.38 12.86 20.38 10.52C20.38 7.95 16.88 4.4 16.88 4.4C16.47 3.99 15.81 3.99 15.4 4.4Z" stroke="#10B981" stroke-width="1.9"/>
</svg>
